<svg width="161" height="53" xmlns="http://www.w3.org/2000/svg"><path d="M157.05 4.663l-7.743 13.465-7.651-13.465h-3.872l9.858 17.166v12.966h3.332V21.829l9.946-17.166zm-44.433 30.132h3.688l3.601-8.493h12.785l3.51 8.493h3.692L126.434 3.218l-13.817 31.577zm8.595-11.655l5.132-12.06 5.04 12.06h-10.172zM103.2 17.766l-2.881-1.265c-1.126-.498-2.251-.997-3.152-1.9-.81-.766-1.126-1.445-1.126-2.617 0-2.804 2.07-4.655 5.042-4.655 1.711 0 2.79.586 3.376 1.04.676.543 1.35 1.446 1.755 2.257l2.656-1.76c-.676-1.312-1.71-2.53-2.926-3.343-1.485-.994-2.972-1.356-4.815-1.356-4.863 0-8.417 3.119-8.417 7.77 0 2.259.763 3.66 2.07 4.925 1.35 1.309 2.834 1.941 4.006 2.483l2.7 1.265c1.575.723 2.746 1.265 3.601 2.078 1.082.994 1.487 2.169 1.487 3.524 0 3.025-1.936 5.963-6.033 5.963-1.53 0-3.015-.362-4.32-1.673-.855-.903-1.575-2.256-1.803-3.838l-3.24.903c.406 1.807 1.307 3.885 2.791 5.33 2.07 2.035 4.546 2.44 6.526 2.44 5.402 0 9.5-3.704 9.5-9.26 0-2.168-.63-3.93-2.162-5.467-1.26-1.265-2.88-2.078-4.636-2.844M67.163.045c-11.65 0-21.126 9.476-21.126 21.126 0 11.647 9.476 21.123 21.126 21.123 11.647 0 21.123-9.476 21.123-21.123C88.286 9.52 78.81.045 67.163.045m0 36.435c-8.444 0-15.312-6.869-15.312-15.31 0-8.443 6.868-15.312 15.312-15.312 8.44 0 15.31 6.869 15.31 15.312 0 8.442-6.87 15.31-15.31 15.31m-42.31-12.338H36.63c-.366 2.77-1.59 6.51-5.676 9.814-3.684 2.984-9.399 6.197-13.578 8.384l1.213-5.777-2.382-.857c-6.082-2.187-10.17-8.002-10.17-14.471 0-8.477 6.9-15.377 15.376-15.377 5.89 0 11.175 3.283 13.787 8.568l5.214-2.582c-3.603-7.28-10.882-11.8-19-11.8C9.726.045.222 9.55.222 21.235.222 29.29 4.82 36.61 11.89 40.17L9.252 52.737l5.276-2.47c.534-.25 13.17-6.193 20.085-11.789C42.6 32.012 42.6 24.183 42.6 21.235v-2.907H24.853v5.814z" fill="#FFF" fill-rule="evenodd"/></svg>