<svg width="232" height="85" xmlns="http://www.w3.org/2000/svg"><defs><linearGradient x1="50%" y1="0%" x2="50%" y2="100%" id="a"><stop stop-color="#EC135A" offset="0%"/><stop stop-color="#FDCE2A" offset="100%"/></linearGradient></defs><g fill="none" fill-rule="evenodd"><path fill="url(#a)" d="M35.521 26.315L45.532.007 23.182 7.69 5.255.007.599 44.94h13.503l-5.82 40.044 44.933-58.67z"/><path d="M97.902 23.822c-.298.477-.61.835-.938 1.073-.328.238-.75.358-1.267.358-.457 0-.949-.144-1.475-.432-.527-.288-1.123-.611-1.788-.969a14.838 14.838 0 0 0-2.28-.968c-.854-.289-1.828-.433-2.92-.433-1.888 0-3.293.403-4.217 1.207-.924.805-1.386 1.893-1.386 3.264 0 .874.278 1.599.835 2.175.556.576 1.286 1.073 2.19 1.49.904.417 1.937.8 3.1 1.147 1.161.348 2.348.735 3.56 1.162 1.212.428 2.4.93 3.562 1.505a11.876 11.876 0 0 1 3.099 2.206c.904.894 1.634 1.981 2.19 3.263.556 1.281.835 2.826.835 4.634 0 2.006-.348 3.884-1.044 5.632a13.187 13.187 0 0 1-3.024 4.574c-1.321 1.302-2.95 2.325-4.888 3.07-1.937.745-4.137 1.117-6.6 1.117-1.351 0-2.727-.139-4.128-.417-1.4-.278-2.756-.67-4.067-1.177a23.589 23.589 0 0 1-3.696-1.803 15.7 15.7 0 0 1-3.01-2.324l2.98-4.709c.239-.338.552-.62.94-.85a2.45 2.45 0 0 1 1.266-.342c.596 0 1.197.189 1.803.566.606.378 1.291.795 2.056 1.252.765.457 1.644.874 2.637 1.252.994.377 2.166.566 3.517.566 1.827 0 3.248-.402 4.261-1.207s1.52-2.081 1.52-3.83c0-1.013-.278-1.837-.834-2.473-.557-.636-1.287-1.162-2.19-1.58a20.18 20.18 0 0 0-3.085-1.102 92.034 92.034 0 0 1-3.546-1.058 25.945 25.945 0 0 1-3.547-1.43 11.192 11.192 0 0 1-3.084-2.235c-.904-.924-1.634-2.076-2.19-3.457-.557-1.38-.835-3.084-.835-5.11 0-1.63.328-3.22.984-4.769.655-1.55 1.619-2.93 2.89-4.142 1.272-1.212 2.831-2.18 4.679-2.906 1.848-.725 3.963-1.087 6.348-1.087 1.33 0 2.627.104 3.888.312 1.262.209 2.459.517 3.591.924a19.72 19.72 0 0 1 3.174 1.46 14.633 14.633 0 0 1 2.637 1.923l-2.503 4.678zm31.73 11.026a5.108 5.108 0 0 1-.805.805c-.259.199-.626.298-1.103.298-.457 0-.87-.11-1.237-.328-.367-.218-.78-.462-1.236-.73a9.38 9.38 0 0 0-1.61-.73c-.616-.219-1.38-.328-2.294-.328-1.133 0-2.111.209-2.936.626a5.436 5.436 0 0 0-2.041 1.788c-.536.775-.934 1.723-1.192 2.846-.258 1.122-.387 2.389-.387 3.8 0 2.96.57 5.234 1.713 6.824 1.142 1.59 2.717 2.384 4.723 2.384 1.073 0 1.923-.134 2.548-.402a7.722 7.722 0 0 0 1.595-.894c.437-.328.84-.631 1.207-.91.367-.277.83-.417 1.385-.417.735 0 1.292.269 1.67.805l2.681 3.308c-.953 1.093-1.957 1.982-3.01 2.667a15.098 15.098 0 0 1-3.233 1.61c-1.103.387-2.21.655-3.323.804a24.465 24.465 0 0 1-3.248.223c-1.887 0-3.69-.357-5.409-1.072a13.251 13.251 0 0 1-4.53-3.115c-1.3-1.36-2.334-3.034-3.099-5.021-.765-1.987-1.147-4.251-1.147-6.794 0-2.226.333-4.307.998-6.244.666-1.937 1.65-3.615 2.95-5.036 1.302-1.42 2.911-2.538 4.828-3.352 1.917-.815 4.138-1.222 6.66-1.222 2.424 0 4.55.387 6.378 1.162 1.828.775 3.477 1.907 4.947 3.397l-2.444 3.248zm28.063 23.573c-.874 0-1.535-.12-1.982-.358-.447-.238-.82-.735-1.118-1.49l-.655-1.699a29.782 29.782 0 0 1-2.235 1.729c-.715.496-1.455.919-2.22 1.266-.765.348-1.58.606-2.444.775a15.03 15.03 0 0 1-2.876.253c-1.41 0-2.692-.183-3.844-.55-1.152-.368-2.13-.91-2.935-1.625-.805-.715-1.426-1.604-1.863-2.667-.437-1.063-.655-2.29-.655-3.68 0-1.093.278-2.216.834-3.368.556-1.152 1.52-2.2 2.89-3.144 1.371-.944 3.22-1.733 5.544-2.37 2.324-.635 5.254-.992 8.79-1.072V39.11c0-1.808-.372-3.114-1.117-3.919-.745-.804-1.803-1.207-3.174-1.207-1.092 0-1.986.12-2.682.358-.695.238-1.316.506-1.862.804-.547.298-1.078.567-1.595.805-.516.238-1.132.358-1.847.358-.636 0-1.172-.16-1.61-.477a4.146 4.146 0 0 1-1.072-1.133l-1.669-2.89c1.868-1.65 3.939-2.876 6.213-3.68 2.275-.805 4.714-1.207 7.316-1.207 1.868 0 3.552.302 5.052.908 1.5.606 2.771 1.45 3.814 2.533 1.043 1.083 1.843 2.37 2.399 3.86.556 1.49.834 3.119.834 4.887v19.31h-4.231zm-10.61-5.633c1.193 0 2.236-.208 3.13-.626.894-.417 1.798-1.092 2.712-2.026v-4.291c-1.848.08-3.368.238-4.56.477-1.192.238-2.136.536-2.83.894-.696.357-1.178.764-1.446 1.221a2.892 2.892 0 0 0-.402 1.49c0 1.053.288 1.793.864 2.22.576.428 1.42.641 2.533.641zm44.067 5.633c-1.152 0-1.907-.517-2.265-1.55l-.715-2.354a18.116 18.116 0 0 1-1.937 1.788c-.675.536-1.406.998-2.19 1.385-.785.388-1.63.686-2.533.894-.904.21-1.883.313-2.936.313-1.609 0-3.099-.357-4.47-1.072-1.37-.716-2.553-1.749-3.546-3.1-.993-1.35-1.773-3.005-2.34-4.961-.566-1.957-.849-4.187-.849-6.69 0-2.305.318-4.446.954-6.423.636-1.976 1.535-3.685 2.697-5.125a12.524 12.524 0 0 1 4.187-3.383c1.629-.814 3.427-1.221 5.394-1.221 1.59 0 2.935.233 4.038.7 1.102.467 2.1 1.078 2.995 1.833V13.809h9.238v44.612h-5.722zm-9.357-6.616c.675 0 1.286-.065 1.832-.194a6.443 6.443 0 0 0 1.505-.551 6.566 6.566 0 0 0 1.297-.894c.407-.358.81-.775 1.207-1.252V35.802c-.716-.775-1.475-1.316-2.28-1.624a7.067 7.067 0 0 0-2.548-.462c-.854 0-1.639.169-2.354.507-.715.337-1.336.879-1.863 1.624-.526.745-.938 1.713-1.236 2.905-.299 1.192-.448 2.633-.448 4.321 0 1.63.12 3 .358 4.113.239 1.112.571 2.011.998 2.697.428.685.94 1.177 1.535 1.475.596.298 1.262.447 1.997.447zm36.02-24.764c2.046 0 3.919.318 5.617.953 1.699.636 3.16 1.56 4.381 2.772 1.222 1.212 2.175 2.697 2.86 4.455.686 1.758 1.029 3.75 1.029 5.975 0 .695-.03 1.261-.09 1.699-.059.437-.168.784-.327 1.043a1.248 1.248 0 0 1-.64.536c-.27.1-.612.149-1.029.149h-17.82c.297 2.583 1.082 4.455 2.354 5.617 1.271 1.163 2.91 1.744 4.917 1.744 1.072 0 1.996-.13 2.771-.388a13.981 13.981 0 0 0 2.071-.864c.606-.318 1.162-.606 1.669-.864a3.465 3.465 0 0 1 1.594-.388c.735 0 1.292.269 1.67.805l2.681 3.308c-.953 1.093-1.982 1.982-3.084 2.667a16.028 16.028 0 0 1-3.397 1.61 18.414 18.414 0 0 1-3.487.804c-1.162.149-2.27.223-3.323.223-2.165 0-4.197-.352-6.094-1.058a14.004 14.004 0 0 1-4.977-3.143c-1.42-1.391-2.543-3.12-3.367-5.186-.825-2.066-1.237-4.47-1.237-7.211 0-2.067.353-4.024 1.058-5.871a14.46 14.46 0 0 1 3.04-4.858c1.32-1.39 2.92-2.493 4.798-3.307 1.877-.815 3.998-1.222 6.362-1.222zm.179 6.377c-1.768 0-3.15.502-4.142 1.505-.994 1.003-1.65 2.449-1.967 4.336h11.532a8.15 8.15 0 0 0-.283-2.146 5.202 5.202 0 0 0-.923-1.862c-.428-.547-.989-.989-1.684-1.326-.696-.338-1.54-.507-2.533-.507z" fill="#FFF"/></g></svg>