<svg height="64" width="91" xmlns="http://www.w3.org/2000/svg"><path fill="#1e1e28" fill-rule="evenodd" d="M15.95 0H0v5.22h5.22v24.02H0v5.22h15.95v-5.22h-5.22V5.22h5.22V0zm12.06 0H22.5v34.46h5.51V20.87l3.01-4.18 9.64 17.77h6.45l-12.5-22.84L42.88 0h-6.5l-8.37 12.01V0zm37.86 0H49.92v5.22h5.22v24.02h-5.22v5.22h15.95v-5.22h-5.22V5.22h5.22V0zm3.2 5.22h7.83v29.24h5.51V5.22h7.83V0H69.07v5.22zM.38 59.08h2.03V45.93l-2.03.22v12.93zm11.48-9.23v.96c-.39-.5-1.42-1.07-2.64-1.07-2.64 0-4.63 1.95-4.63 4.72 0 2.77 1.99 4.73 4.63 4.73 1.24 0 2.25-.57 2.64-1.07v.96h2.07v-9.23h-2.07zm.08 4.61c0 1.52-1.15 2.77-2.64 2.77-1.54 0-2.72-1.25-2.72-2.77 0-1.51 1.18-2.77 2.72-2.77 1.49 0 2.64 1.26 2.64 2.77zm6.86 4.62v-.96c.59.57 1.5 1.07 2.72 1.07 2.75 0 4.58-1.85 4.58-4.73 0-2.88-1.83-4.72-4.58-4.72-1.15 0-2.14.44-2.72 1.07v-4.88l-2.03.22v12.93h2.03zm-.03-4.62c0-1.59 1.05-2.77 2.65-2.77 1.61 0 2.68 1.18 2.68 2.77s-1.07 2.77-2.68 2.77c-1.6 0-2.65-1.18-2.65-2.77zm8.84 0c0 2.7 1.99 4.73 4.73 4.73 2.73 0 4.72-2.03 4.72-4.73 0-2.69-1.99-4.72-4.72-4.72-2.74 0-4.73 2.03-4.73 4.72zm2.07 0c0-1.6 1.07-2.77 2.66-2.77 1.58 0 2.65 1.17 2.65 2.77 0 1.61-1.07 2.77-2.65 2.77-1.59 0-2.66-1.16-2.66-2.77zm9.56 4.62h2.03v-5.1c0-1.36.91-2.29 2.2-2.29h.18v-1.95c-1.29 0-1.94.48-2.38 1.07v-.96h-2.03v9.23zm12.98-9.23v.96c-.39-.5-1.42-1.07-2.64-1.07-2.64 0-4.64 1.95-4.64 4.72 0 2.77 2 4.73 4.64 4.73 1.24 0 2.25-.57 2.64-1.07v.96h2.07v-9.23h-2.07zm.07 4.61c0 1.52-1.14 2.77-2.64 2.77-1.53 0-2.71-1.25-2.71-2.77 0-1.51 1.18-2.77 2.71-2.77 1.5 0 2.64 1.26 2.64 2.77zm5.63-4.61h-1.86v1.92h1.86v7.31h2.03v-7.31h2.77v-1.92h-2.77v-3.92l-2.03.22v3.7zm6.13 4.61c0 2.7 2 4.73 4.73 4.73 2.73 0 4.72-2.03 4.72-4.73 0-2.69-1.99-4.72-4.72-4.72-2.73 0-4.73 2.03-4.73 4.72zm2.07 0c0-1.6 1.07-2.77 2.66-2.77s2.66 1.17 2.66 2.77c0 1.61-1.07 2.77-2.66 2.77s-2.66-1.16-2.66-2.77zm9.56 4.62h2.03v-5.1c0-1.36.91-2.29 2.2-2.29h.19v-1.95c-1.3 0-1.94.48-2.39 1.07v-.96h-2.03v9.23zm5.06-9.23l3.38 7.6v6.46l2.03-.22v-6.24l3.38-7.6h-2.11l-2.28 5.37-2.29-5.37h-2.11zm0 0"/></svg>