<svg viewBox="0 0 82 68" xmlns="http://www.w3.org/2000/svg"><path d="M71.748 36.602c-2.738 0-4.925-1.281-5.707-3.344a4.61 4.61 0 0 1-.295-1.723.638.638 0 0 0 .02-.365c.076-.821.354-1.66.832-2.47.927-1.57 2.478-2.838 4.368-3.572a9.15 9.15 0 0 1 3.325-.64c2.738 0 4.925 1.282 5.707 3.345.538 1.42.34 3.038-.558 4.557-.926 1.57-2.477 2.838-4.367 3.572a9.154 9.154 0 0 1-3.325.64zm3.54 9.68l-.554-8.138 5.61 3.421-5.057 4.717zM49.503 30.67a25.81 25.81 0 0 1 2.2 10.596H1.247c.011-6.397 2.373-12.81 7.11-17.777 7.222-7.573 18.087-9.922 27.681-5.987a.617.617 0 0 0 .682-.146L50.9 2.489c.174.57.486 1.227.935 1.972 1.003 1.662 2.591 3.59 4.471 5.428 2.792 2.73 5.648 4.69 7.507 5.21L49.625 29.975a.637.637 0 0 0-.12.696zM44.56 58.891c-4.693 4.921-10.988 7.706-17.726 7.841-6.74.135-13.11-2.393-17.944-7.12-4.78-4.675-7.324-10.826-7.616-17.084h50.39a25.756 25.756 0 0 1-7.104 16.363zM59.768 6.26c1.806 1.766 3.324 3.605 4.273 5.178 1.038 1.72.957 2.413.88 2.492-.015.017-.086.05-.238.05-1.164 0-4.192-1.752-7.511-4.998-1.807-1.766-3.324-3.605-4.274-5.178-.985-1.632-.962-2.339-.892-2.474l.02-.022.004-.005a.465.465 0 0 1 .226-.04c1.164 0 4.192 1.75 7.512 4.997zm22.031 35.664a.635.635 0 0 0-.1-1.004l-6.19-3.775.01-.004c2.15-.835 3.921-2.292 4.99-4.102 1.099-1.86 1.33-3.869.652-5.657-.972-2.563-3.604-4.155-6.87-4.155a10.38 10.38 0 0 0-3.772.725c-2.149.834-3.92 2.29-4.99 4.1a7.498 7.498 0 0 0-.879 2.194l-8.423-5.376 9.6-10.067a.626.626 0 0 0 .08-.104c.582-.753.314-2.07-.803-3.92-1.003-1.66-2.59-3.588-4.47-5.427C57.36 2.151 53.993 0 52.255 0c-.596 0-.946.236-1.135.434-.014.015-.025.031-.038.046l-14.97 15.697A26.102 26.102 0 0 0 21.25 14.93c-5.267 1.09-10.035 3.748-13.789 7.684-10.164 10.658-9.91 27.662.565 37.906C12.972 65.356 19.45 68 26.32 68c.18 0 .36-.002.54-.005 7.07-.143 13.674-3.064 18.597-8.226a26.93 26.93 0 0 0 7.103-14.222 27.054 27.054 0 0 0-1.75-15l4.533-4.751 9.154 5.843c.002.708.128 1.404.381 2.07.971 2.563 3.604 4.155 6.87 4.155.57 0 1.14-.052 1.708-.15l.793 11.66-10.419 12.04c-.227.262-.2.66.058.89a.616.616 0 0 0 .88-.059l9.798-11.322 2.831 11.812a.625.625 0 0 0 .752.464.632.632 0 0 0 .459-.762l-3.102-12.941-.11-1.601 6.403-5.972z" fill="#1E1E28" fill-rule="evenodd"/></svg>