<svg width="173" height="156" xmlns="http://www.w3.org/2000/svg"><path d="M65.216 109.082a52.294 52.294 0 0 1-7.654-19.657c-.169-.991-.3-1.984-.412-2.977l-7.425 3.205a11.406 11.406 0 0 1-.662 5.118c-1.895 5.056-7.366 8.322-13.939 8.323-1.988 0-3.98-.296-5.94-.87v.002l-.823 2.914 36.855 3.942zm8.429 6.589c9.435 9.677 22.092 15.153 35.638 15.42 13.552.267 26.357-4.707 36.078-14.005 11.595-11.092 16.652-26.415 15.097-41.23-2.34-2.455-4.826-4.785-8.26-4.785-3.632 0-5.224 1.593-8.712 5.082l-.386.387c-3.557 3.553-7.467 6.84-11.959 6.84-4.509 0-8.155-3.212-10.828-6.01-.237-.249-.474-.5-.713-.754-2.572-2.726-5.231-5.545-8.98-5.545-3.807 0-6.457 2.566-9.057 5.426-4.214 4.632-7.97 6.884-11.482 6.884h-.268c-4.509 0-8.155-3.213-10.828-6.012-.237-.248-.474-.5-.713-.753-2.572-2.726-5.231-5.545-8.98-5.545-3.806 0-6.456 2.566-9.057 5.426a1.25 1.25 0 0 1-.81.4 49.52 49.52 0 0 0-.038 7.093c.021.037.046.072.063.112.135.306.133.636.025.926.993 11.243 5.823 22.082 14.17 30.643zm72.79-69.622c-14.52-14.893-36.367-19.515-55.655-11.775a1.262 1.262 0 0 1-1.371-.288L60.934 4.781c-.345 1.147-.98 2.477-1.914 3.992-2.017 3.267-5.21 7.058-8.99 10.674-5.557 5.316-11.24 9.147-14.98 10.213l28.413 29.142c.355.364.452.906.243 1.367a50.127 50.127 0 0 0-3.87 13.12c2.521-2.548 5.424-4.7 9.456-4.7 4.836 0 8.01 3.365 10.81 6.333l.703.743c2.328 2.437 5.455 5.235 9.008 5.235h.268c2.724 0 5.96-2.04 9.62-6.064 2.876-3.16 6.087-6.246 10.92-6.246 4.835 0 8.009 3.364 10.809 6.332.235.25.47.498.703.743 2.328 2.437 5.455 5.235 9.008 5.235 2.89 0 5.838-1.77 10.18-6.107l.385-.385c3.627-3.628 5.816-5.818 10.492-5.818 3.158 0 5.587 1.418 7.663 3.216-1.767-9.382-6.234-18.38-13.426-25.757zM43.071 12.307c-7.993 7.647-10.774 13.47-10.471 14.857.03.026.062.047.09.076l.219.225c.072.013.16.024.28.024 2.34 0 8.43-3.445 15.101-9.827 3.632-3.474 6.683-7.09 8.593-10.183 2.087-3.382 1.923-4.745 1.77-4.902-.032-.033-.175-.096-.48-.096-2.34 0-8.429 3.444-15.102 9.826zM36.634 78.03c-2.14-.787-4.33-1.186-6.507-1.186-5.515 0-10.064 2.632-11.59 6.706-1.051 2.802-.617 5.981 1.22 8.95 1.898 3.064 5.044 5.525 8.86 6.927 2.14.787 4.33 1.186 6.507 1.186 5.515 0 10.064-2.632 11.59-6.706 1.051-2.803.618-5.982-1.22-8.95-1.898-3.065-5.044-5.525-8.86-6.927zm-35.34 68.358l18.59-21.89c.14-.163.313-.277.5-.35l-.015-.127c-.045-.38.093-.737.34-.995l6.063-21.469c.016-.057.04-.11.064-.163-3.93-1.641-7.18-4.312-9.214-7.597-2.249-3.632-2.758-7.578-1.434-11.11 1.894-5.057 7.366-8.324 13.939-8.324 2.476 0 4.96.452 7.379 1.341 4.339 1.594 7.934 4.42 10.123 7.956a14.896 14.896 0 0 1 1.603 3.5l7.683-3.317c-.511-8.19.9-16.35 4.164-23.915L31.447 29.536a2.612 2.612 0 0 1-.54-.42c-2.989-3.065 3.309-11.786 10.424-18.593C47.912 4.229 54.68 0 58.172 0c.67 0 1.18.147 1.57.342.256.043.501.16.695.359l30.191 30.964c9.508-3.641 19.822-4.49 29.886-2.452a53.373 53.373 0 0 1 27.723 15.112c8.411 8.628 13.27 19.37 14.612 30.429l.077.082a1.23 1.23 0 0 1 .097 1.576c1.366 15.293-3.963 31.02-15.923 42.458-6.609 6.322-14.58 10.737-23.237 12.988h47.884c.692 0 1.253.555 1.253 1.24 0 .686-.56 1.241-1.253 1.241h-9.127l4.868 17.841a1.24 1.24 0 0 1-.882 1.521 1.25 1.25 0 0 1-1.535-.874l-5.01-18.358c-.012-.043-.015-.086-.022-.13H61.81c-.007.044-.01.087-.022.13l-5.01 18.358a1.251 1.251 0 0 1-1.535.874 1.24 1.24 0 0 1-.882-1.52l4.868-17.842H50.1a1.246 1.246 0 0 1-1.252-1.24c0-.686.56-1.24 1.252-1.24h46.62c-9.387-2.429-17.958-7.369-24.877-14.465a53.762 53.762 0 0 1-4.764-5.618l-39.402-4.214-4.745 16.804 3.583 30.249A1.243 1.243 0 0 1 25.269 156a1.248 1.248 0 0 1-1.242-1.096l-3.165-26.723a1.27 1.27 0 0 1-.296-.04 1.263 1.263 0 0 1-.359-.17L3.211 147.985a1.255 1.255 0 0 1-.96.442c-.284 0-.57-.096-.805-.292a1.233 1.233 0 0 1-.152-1.747z" fill="#7D7D9B" fill-rule="evenodd"/></svg>