<svg width="152" height="174" xmlns="http://www.w3.org/2000/svg"><path d="M99.602 143.806c-2.55 0-4.624 2.063-4.624 4.598 0 2.535 2.074 4.598 4.624 4.598s4.625-2.063 4.625-4.598c0-2.535-2.075-4.598-4.625-4.598m48.142-31.093c-1.877 3.12-5.017 5.642-8.843 7.102-2.213.844-4.478 1.272-6.734 1.272-5.544 0-9.972-2.548-11.555-6.65-1.09-2.822-.69-6.04 1.128-9.062a15.363 15.363 0 0 1 2.324-2.946c.378-.114.68-.397.815-.764 1.616-1.411 3.551-2.568 5.705-3.39 2.212-.844 4.477-1.272 6.734-1.272 5.543 0 9.971 2.547 11.554 6.65 1.09 2.821.69 6.04-1.128 9.06zm-11.446 20.294l-11.339-8.971v-1.901c2.108.941 4.552 1.46 7.208 1.46 1.155 0 2.31-.104 3.459-.298l.672 9.71zM115.54 157.32H83.666c-3.804 0-6.898-3.076-6.898-6.857v-10.205c.012 0 .023.004.035.004h45.634v10.2c0 3.782-3.095 6.858-6.898 6.858zm-62.067-7.261c-27.986 0-50.03-21.075-50.918-48.289h71.691v44.04c-6.438 2.78-13.48 4.249-20.773 4.249zm-19.066-98.61c.467-.196.77-.65.77-1.154l-.002-40.23c1.06.658 2.475 1.242 4.254 1.746 3.76 1.066 8.735 1.652 14.01 1.652 5.278 0 10.254-.586 14.013-1.652 1.662-.47 3.01-1.01 4.044-1.615v40.098c0 .52.323.985.812 1.171 9.304 3.54 17.216 10.188 22.865 18.571H83.666c-5.195 0-9.42 4.202-9.42 9.366v19.86H2.535C2.847 78.21 15.28 59.5 34.407 51.45zM53.44 2.508c11.478 0 17.83 2.69 18.056 4.143v.161c-.227 1.455-6.578 4.144-18.056 4.144-11.689 0-18.065-2.79-18.065-4.224 0-1.434 6.376-4.224 18.065-4.224zm68.998 76.894v21.101a17.917 17.917 0 0 0-2.862 3.585c-2.223 3.696-2.692 7.69-1.318 11.248.836 2.167 2.286 3.98 4.18 5.353v17.065H76.803c-.012 0-.023.003-.035.003V79.402c0-3.782 3.094-6.858 6.898-6.858h31.873c3.803 0 6.898 3.076 6.898 6.858zm28.79 23.351c-1.966-5.094-7.297-8.258-13.91-8.258-2.566 0-5.136.484-7.637 1.439a21.89 21.89 0 0 0-4.72 2.49V79.402c0-5.164-4.227-9.366-9.42-9.366H98.17c-5.822-9.215-14.205-16.595-24.153-20.596V6.897c.002-.055.01-.11.01-.165 0-.056-.008-.11-.01-.165V6.04c0-.418-.208-.785-.524-1.013-.893-1.356-2.91-2.488-6.043-3.376C63.692.587 58.716 0 53.44 0S43.189.587 39.43 1.652c-3.765 1.067-5.924 2.486-6.448 4.225a1.24 1.24 0 0 0-.33.838l.002 42.755C12.79 58.193 0 77.957 0 100.061c0 29.443 23.488 52.505 53.472 52.505 7.267 0 14.297-1.39 20.773-4.03v1.927c0 5.164 4.226 9.365 9.42 9.365h31.874c5.194 0 9.42-4.2 9.42-9.365V127.24l11.086 8.77c.145.115.308.188.477.23l.71 10.239-21.097 23.934c-.46.52-.407 1.313.117 1.77a1.262 1.262 0 0 0 1.78-.117l19.841-22.51 5.734 23.484a1.26 1.26 0 0 0 1.523.923 1.254 1.254 0 0 0 .928-1.514l-6.281-25.729-1.662-23.999c.566-.166 1.13-.352 1.69-.566 4.35-1.66 7.94-4.557 10.104-8.156 2.223-3.696 2.692-7.69 1.318-11.247zm-51.625 47.741a2.098 2.098 0 0 1-2.101-2.09c0-1.152.942-2.09 2.1-2.09 1.16 0 2.103.938 2.103 2.09 0 1.153-.943 2.09-2.102 2.09m.558-21.257c8.483 0 15.127-6.53 15.127-14.865 0-6.022-3.555-11.67-8.744-14.05v-10.92c0-.337-.136-.66-.377-.895a1.262 1.262 0 0 0-.906-.359l-10.317.179a1.257 1.257 0 0 0-1.239 1.254v10.767c-5.295 2.58-8.672 7.994-8.672 14.024 0 8.335 6.645 14.865 15.128 14.865m0-2.508c-6.658 0-11.956-4.817-12.549-11.168l.028.002h25.068c-.593 6.35-5.89 11.166-12.547 11.166m-4.703-24.42c.467-.196.77-.65.77-1.154V90.813l7.794-.136v10.478c0 .519.321.985.81 1.17 4.282 1.63 7.372 5.93 7.859 10.73H87.639l-.012.002c.466-4.763 3.43-8.897 7.83-10.748" fill="#1E1E28" fill-rule="evenodd"/></svg>