<svg width="95" height="90" xmlns="http://www.w3.org/2000/svg"><path d="M88.997 49.735c0-.263-.007-.525-.014-.787-1.232-1.298-2.522-2.59-4.339-2.59-1.83 0-2.632.8-4.39 2.555l-.194.194c-1.793 1.785-3.763 3.437-6.026 3.437-2.273 0-4.11-1.614-5.457-3.02l-.36-.379c-1.295-1.37-2.635-2.786-4.524-2.786-1.918 0-3.254 1.29-4.564 2.726-2.124 2.328-4.016 3.46-5.786 3.46h-.135c-2.272 0-4.11-1.615-5.456-3.021-.12-.125-.24-.251-.36-.379-1.296-1.37-2.635-2.786-4.524-2.786-1.919 0-3.254 1.29-4.564 2.726a.628.628 0 0 1-.28.175c-.002.158-.009.316-.009.475 0 6.73 2.65 13.002 7.461 17.662 4.786 4.636 11.19 7.189 18.03 7.189 14.294 0 25.491-10.916 25.491-24.851M73.045 25.573a.624.624 0 0 1-.385-.575V5.003c-.53.327-1.238.617-2.127.868-1.882.53-4.371.821-7.01.821-2.64 0-5.13-.292-7.012-.821-.83-.234-1.505-.503-2.022-.803v19.93c0 .258-.162.49-.406.582-8.781 3.32-15.1 12.116-15.963 21.875 1.267-1.272 2.725-2.343 4.748-2.343 2.437 0 4.036 1.69 5.447 3.182.118.126.236.25.354.373 1.173 1.225 2.749 2.63 4.54 2.63h.134c1.373 0 3.004-1.024 4.848-3.046 1.449-1.588 3.067-3.139 5.502-3.139 2.437 0 4.036 1.69 5.447 3.182l.354.373c1.173 1.225 2.75 2.63 4.54 2.63 1.455 0 2.941-.888 5.13-3.068l.193-.193c1.828-1.823 2.93-2.924 5.287-2.924 1.774 0 3.092.885 4.215 1.933-.958-9.513-6.95-17.766-15.814-21.472M63.522 1.247c-5.742 0-8.92 1.336-9.033 2.06v.079c.113.723 3.29 2.06 9.033 2.06 5.848 0 9.039-1.387 9.039-2.1 0-.712-3.19-2.1-9.039-2.1m-30.451 73.72h23.502a26.645 26.645 0 0 1-11.98-6.68c-5.056-4.896-7.84-11.484-7.84-18.551 0-10.998 6.753-21.277 16.473-25.161V3.428c-.001-.028-.005-.054-.005-.082 0-.028.004-.055.006-.082v-.261c0-.208.103-.39.262-.504.447-.674 1.456-1.237 3.022-1.678 1.881-.53 4.371-.82 7.011-.82 2.64 0 5.13.29 7.01.82 1.884.53 2.965 1.236 3.226 2.1a.618.618 0 0 1 .165.417l-.001 21.251c9.939 4.335 16.337 14.16 16.337 25.146 0 12.267-8.259 22.305-19.767 25.231H94.37c.348 0 .63.28.63.623a.627.627 0 0 1-.63.624h-4.6l2.453 8.964a.622.622 0 0 1-.61.786.63.63 0 0 1-.608-.46l-2.524-9.225c-.006-.022-.007-.043-.011-.065h-49.5c-.003.022-.005.043-.01.065l-2.525 9.225a.63.63 0 0 1-.774.439.623.623 0 0 1-.444-.765l2.453-8.964h-4.6a.627.627 0 0 1-.631-.624c0-.344.282-.623.631-.623M6.556 59.193c.838 1.858 2.947 3.013 5.503 3.013 1.255 0 2.56-.283 3.777-.817 3.814-1.677 5.858-5.392 4.556-8.28-.838-1.86-2.947-3.014-5.503-3.014a9.47 9.47 0 0 0-3.777.818c-1.873.823-3.376 2.156-4.231 3.753-.829 1.546-.944 3.154-.325 4.527zm3.347 12.456l4.817 2.736-1.414-6.284-3.403 3.548zm.696-21.875a10.754 10.754 0 0 1 4.29-.926c3.062 0 5.612 1.438 6.656 3.754 1.585 3.516-.746 7.969-5.196 9.925-.912.402-1.872.674-2.831.815.012.03.023.059.03.09l3.49 15.507 8.64 7.454c.263.226.29.62.06.88a.633.633 0 0 1-.89.059l-7.87-6.788-.386 8.73a.628.628 0 0 1-.658.595.626.626 0 0 1-.603-.65l.442-9.972a.63.63 0 0 1 .016-.11l-.698-3.104-6.512-3.698a.618.618 0 0 1-.144-.97l4.54-4.732-.659-2.93a.613.613 0 0 1-.002-.258c-.085.003-.17.007-.255.007-3.062 0-5.613-1.438-6.656-3.752-.78-1.73-.652-3.725.362-5.618.987-1.842 2.704-3.372 4.834-4.308zm19.174-14c-.467.57-1.177.99-2 1.18a4.093 4.093 0 0 1-.923.108c-1.291 0-2.346-.645-2.566-1.569-.282-1.187.824-2.462 2.466-2.842.307-.071.617-.107.922-.107 1.291 0 2.346.645 2.565 1.569.13.545-.035 1.135-.464 1.66m-12.97 3.898a4.093 4.093 0 0 1-.923.107c-1.29 0-2.346-.645-2.566-1.569-.13-.545.036-1.135.466-1.66.466-.572 1.177-.991 2-1.182.307-.07.617-.107.922-.107 1.292 0 2.347.646 2.567 1.57.281 1.186-.825 2.46-2.467 2.841m14.664-5.843c-.004-.018-.01-.035-.015-.053V19.246a.621.621 0 0 0-.254-.5.637.637 0 0 0-.556-.098L19.65 21.86a.625.625 0 0 0-.452.598v12.267c-.667-.452-1.533-.711-2.497-.711-.402 0-.809.047-1.21.14-1.095.253-2.052.826-2.694 1.611-.68.832-.933 1.8-.712 2.729.36 1.514 1.884 2.53 3.794 2.53.403 0 .81-.046 1.211-.14 2.319-.537 3.847-2.484 3.406-4.34-.01-.042-.025-.084-.037-.126l.001-.01V22.922l9.727-2.843v11.943c-.67-.46-1.542-.726-2.516-.726-.402 0-.81.047-1.21.14-2.32.538-3.847 2.485-3.406 4.34.359 1.514 1.884 2.531 3.794 2.531.402 0 .81-.047 1.21-.14 1.096-.254 2.053-.826 2.695-1.611.68-.832.932-1.801.71-2.729M4.877 27.813a4.092 4.092 0 0 1-.923.108c-1.29 0-2.345-.646-2.564-1.57-.13-.545.035-1.135.464-1.66.467-.571 1.178-.991 2-1.182.307-.07.617-.107.922-.107 1.292 0 2.347.646 2.567 1.57.282 1.186-.824 2.461-2.466 2.841m9.906-12.125L8.57 6.1a.635.635 0 0 0-.709-.262.625.625 0 0 0-.454.598v16.528c-.684-.51-1.6-.808-2.63-.808-.403 0-.81.047-1.21.14-1.096.253-2.053.826-2.695 1.612-.68.831-.932 1.8-.711 2.728.36 1.514 1.884 2.531 3.793 2.531.403 0 .81-.047 1.211-.14 2.1-.486 3.545-2.128 3.474-3.81a.61.61 0 0 0 .03-.181V8.566l5.05 7.794c.188.29.58.374.872.189a.619.619 0 0 0 .192-.861" fill="#7D7D9B" fill-rule="evenodd"/></svg>