<svg width="140" height="208" xmlns="http://www.w3.org/2000/svg"><path d="M104.52 186.992l-4.908-18.86h27.805l4.907 18.86H104.52zm-5.958-10.376c-8.068 17.474-26.039 28.765-45.784 28.765-27.537 0-49.243-20.724-50.248-47.53h91.834l4.736 18.198c-.228.123-.42.314-.538.567zm-64.602-68.81c.46-.195.76-.645.76-1.143l-.002-40.012c1.05.659 2.457 1.243 4.23 1.747 3.71 1.054 8.622 1.634 13.829 1.634 5.208 0 10.12-.58 13.83-1.634 1.623-.461 2.943-.989 3.96-1.58v39.845c0 .514.319.975.8 1.158a45.568 45.568 0 0 1 11.006 6.083c.187.14.4.215.617.238l10.729 41.227H2.499c.21-20.935 12.506-39.566 31.46-47.563zm9.335-47.882l1.623-.249a8.71 8.71 0 0 0 13.524-.182c.098.03.2.05.307.055l1.182.046c7.054.83 10.25 2.64 10.635 3.59v.385c-.533 1.462-6.765 3.982-17.79 3.982-11.536 0-17.83-2.761-17.83-4.18 0-.668 2.045-2.39 8.349-3.447zm8.314-17.984c2.739 3.957 6.225 9.786 6.225 12.179 0 3.421-2.792 6.204-6.225 6.204-3.432 0-6.225-2.783-6.225-6.204 0-2.393 3.486-8.222 6.225-12.179zm30.472 68.713a47.826 47.826 0 0 0-9.024-4.835V75.974l9.024 34.679zm-.043-77.023c-5.032 0-9.056-2.51-10.501-6.552-2.112-5.902 1.975-13.095 9.11-16.033 2.009-.828 4.065-1.247 6.112-1.247 5.032 0 9.055 2.51 10.5 6.552 2.111 5.901-1.975 13.093-9.109 16.033-2.01.827-4.066 1.247-6.112 1.247zm6.65 18.903l-1.012-15.779 10.263 6.634-9.252 9.145zm-9.955 32.134l8.788-21.369 4.833 21.369H78.733zm32.603 21.673H83.532l-4.995-19.191h27.804l4.995 19.19zm5.812 22.334l4.456 17.123H93.8l-4.456-17.123h27.804zm-32.97-19.852h27.803l4.521 17.37H88.698l-4.52-17.37zm12.48 47.96c.009-.057.018-.113.018-.172 0-.282-.098-.539-.257-.747l-1.973-7.584h27.804l4.52 17.371H98.967l-2.308-8.868zM56.606 30.9c-.366.838-1.255 1.38-2.265 1.38-.4 0-.797-.084-1.176-.248-1.364-.594-2.041-2.068-1.51-3.285L62.549 3.862c.366-.839 1.255-1.38 2.265-1.38.401 0 .797.083 1.176.247 1.364.594 2.041 2.068 1.507 3.285L56.606 30.9zm83.354 175.548L103.005 64.442a1.245 1.245 0 0 0-2.41.623l5.1 19.602h-10.81a1.128 1.128 0 0 0-.023-.194l-5.76-25.462-.204-3.191 11.892-11.755a1.24 1.24 0 0 0-.2-1.922l-11.53-7.451.04-.016c8.342-3.437 13.054-12.032 10.503-19.16-1.78-4.981-6.823-8.2-12.845-8.2-2.375 0-4.751.483-7.064 1.436-5.866 2.416-9.933 7.384-10.946 12.6l-4.075-2.681L69.78 7.007c1.082-2.472-.171-5.41-2.795-6.552A5.41 5.41 0 0 0 64.813 0c-2 0-3.786 1.127-4.548 2.87L49.374 27.756c-1.08 2.47.173 5.41 2.796 6.55a5.424 5.424 0 0 0 2.171.456c2 0 3.785-1.127 4.548-2.87l4.776-10.913 4.842 3.186c.03 1.27.25 2.53.685 3.746 1.781 4.982 6.824 8.2 12.846 8.2 1.03 0 2.058-.096 3.084-.277l1.484 23.146-9.431 22.933-4.119-15.824v-2.246c.026-.155.042-.312.042-.472a2.92 2.92 0 0 0-.042-.47v-.027c0-.259-.08-.5-.216-.698-1.494-3.37-9.167-4.643-12.667-5.052a1.565 1.565 0 0 0-.096-.008l-.295-.011a8.591 8.591 0 0 0 .542-2.986c0-4.39-6.92-13.977-7.708-15.056a1.248 1.248 0 0 0-2.013 0c-.789 1.079-7.708 10.666-7.708 15.056 0 1.152.23 2.25.641 3.258l-.637.098c-3.667.614-9.667 2.096-10.373 5.27-.183.215-.298.49-.298.796l.001 42.307C12.623 114.478 0 134.036 0 155.908c0 29.134 23.183 51.955 52.778 51.955 20.047 0 38.356-11.108 47.195-28.459l2.25 8.644c-.01.06-.019.121-.019.185 0 .286.1.545.263.755l4.706 18.082a1.245 1.245 0 0 0 2.41-.622l-4.417-16.974h27.804l4.58 17.596a1.245 1.245 0 0 0 2.41-.622z" fill="#1E1E28" fill-rule="evenodd"/></svg>