<svg width="220" height="59" xmlns="http://www.w3.org/2000/svg"><g fill="none" fill-rule="evenodd"><path d="M19.848 15.949l-.019.908h-.384l-.018-.908C18.865 8.262 12.849.913 5.373.913H0v56.682h18.32V26.69h2.685v30.905h18.27V.913h-5.371c-7.477 0-13.493 7.35-14.056 15.036z" fill="#D23241"/><path d="M59.104 54.007c-.68 1.08-2.326 1.136-2.969 1.114V36.3c2.997 0 4.073 3.418 4.073 10.937 0 2.622-.255 5.419-1.104 6.77m-2.969-20.292V19.232c0-.166.008-.334.024-.502h4.404c2.146 0 2.8.785 2.8.785V16.1H51.875s.596 1.696.596 3.133v35.296s-.17 2.624-.681 3.045c.468.042 1.422.045 2.318.035.025.005 4.277.443 6.195-.722 1.926-1.168 4.356-3 4.356-11.42 0-8.416-3.815-11.752-8.524-11.752M73.054 55.71c-1.296 0-2.075-1.669-2.075-5.8 0-7.53 3.544-10.233 3.743-10.38v14.83c-.092.862-.53 1.35-1.668 1.35m5.125-3.399V29.062c-.003-.18-.15-5.651-5.22-5.651-5.158 0-5.838 6.924-5.838 8.86 0 1.938.584 2.178.584 2.178h3.308s-.487-1.597-.391-4.017c.098-2.421.243-4.938 2.19-4.938 1.703 0 1.91 1.838 1.91 3.583v7.521l-.014-.018c-5.496 3.729-7.929 9.393-7.929 14.477 0 5.083 3.213 6.972 5.837 6.972 1.654 0 2.382-.863 2.693-1.5a4.562 4.562 0 0 0 1.736 1.644l2.478-3.097c-1.022-.71-1.286-1.953-1.344-2.765m14.856 2.201V23.928h-4.153s.698 1.39.698 2.616v12.523h-3.938V23.928h-4.153s.698 1.39.698 2.616V54.75c0 1.226-.698 2.614-.698 2.614h4.853s-.7-1.388-.7-2.614V41.002h3.938v13.75c0 1.225-.698 2.613-.698 2.613h4.852s-.699-1.388-.699-2.614v-.24m15.417-30.587l-2.733.004h-.952s.24 1.331-.045 2.557l-4.207 10.779V23.928H96.36s.698 1.39.698 2.615v28.208c0 1.226-.698 2.614-.698 2.614h4.854s-.698-1.388-.698-2.614V43.132l1.734-4.198 3.57 15.823v-.006c.204 1.428-.153 2.614-.153 2.614h4.108l-5.25-23.937 3.928-9.504m30.589-7.824h-4.869l-4.185 16.798-4.182-16.799h-4.77c.51.426.683 2.886.683 2.886v35.239c0 1.444-.599 3.14-.599 3.14h4.872s-.596-1.696-.596-3.14V27.722l4.592 21.69 4.692-22.162v26.974c0 1.444-.595 3.14-.595 3.14h4.873s-.598-1.696-.598-3.14V18.985s.17-2.46.682-2.886m10.748 22.423c0 4.223.017 15.12-.81 16.72-.28.537-.786.724-1.119.724-.335 0-.84-.187-1.12-.724-.828-1.6-.81-12.497-.81-16.72 0-3.702-.018-10.006.47-11.749.257-.921.823-1.29 1.361-1.29l.099.008.098-.009c.538 0 1.103.37 1.36 1.291.488 1.743.47 8.047.47 11.749m-1.684-15.137c-.085 0-.164.007-.244.01-.082-.003-.161-.01-.243-.01-4.995 0-5.968 8.166-5.968 15.525 0 7.35-.063 19.086 6.211 19.107 6.275-.021 6.21-11.757 6.21-19.107 0-7.359-.975-15.525-5.966-15.525m20.42 18.172h-3.697s.326.838.583 1.805c.26.969.196 5.425.066 7.166-.129 1.744-.147 5.438-2.221 5.438a1.3 1.3 0 0 1-1.12-.724c-.826-1.6-.81-12.497-.81-16.72 0-3.702-.016-10.006.47-11.749.257-.922.822-1.29 1.363-1.29 2.528 0 2.124 6.325 1.995 7.1-.132.775-.52 1.937-.52 1.937h3.502s.194-.129.389-.905c.39-2.517-.518-10.23-5.512-10.23s-5.967 8.166-5.967 15.525c0 7.358-.066 19.107 6.226 19.107 6.291 0 5.773-13.946 5.773-15.106 0-1.162-.52-1.354-.52-1.354m49.905 13.194V23.93h-4.154s.698 1.389.698 2.615V54.75c0 1.226-.698 2.614-.698 2.614h4.854s-.7-1.388-.7-2.614m-10.72-.752c-.62.988-2.127 1.04-2.717 1.02V37.79c2.743 0 3.73 3.128 3.73 10.011 0 2.401-.234 4.959-1.013 6.198m-2.717-18.576V23.928h-4.153s.698 1.39.698 2.616V54.75c0 1.226-.698 2.614-.698 2.614h3.566c1.3.03 3.285-.053 4.403-.73 1.764-1.07 3.988-2.748 3.988-10.453 0-7.707-3.492-10.76-7.804-10.76m-11.34 18.572c-.614.98-2.094 1.04-2.694 1.022V39.102c2.742 0 3.706 1.81 3.706 8.694 0 2.402-.233 4.96-1.012 6.197zm-2.694-20.12v-4.796c0-1.745.208-3.584 1.91-3.584 1.947 0 1.833 1.688 1.93 4.109.099 2.42-.39 4.017-.39 4.017l.016-.003c-.422 1.487-1.336 3.117-3.356 3.117l-.053.004h-.057v-2.864zm3.835 3.56c1.315-.876 2.733-2.51 2.949-5.486.022-.222.04-.469.04-.765 0-1.936.097-7.771-5.06-7.771-5.156 0-5.22 5.666-5.22 5.666v25.674c0 1.226-.698 2.614-.698 2.614h4.154v-.001c1.253-.01 2.838-.156 3.794-.735 1.763-1.067 3.986-2.746 3.986-10.452 0-5.21-1.588-7.682-3.945-8.744zM183.78 23.924l-2.735.004h-.953s.24 1.331-.044 2.557l.005-.016-4.212 10.795V23.928h-4.154s.697 1.39.697 2.615v28.208c0 1.226-.697 2.614-.697 2.614h4.852s-.698-1.388-.698-2.614V43.132l1.735-4.198 3.569 15.82c.204 1.427-.152 2.61-.152 2.61h4.109l-5.25-23.938 3.927-9.502" fill="#000"/></g></svg>